<svg width="370" height="255" viewBox="0 0 370 255" fill="none" xmlns="http://www.w3.org/2000/svg">
<g filter="url(#filter0_ddd)">
<rect x="24.8311" y="8.21857" width="320.425" height="206.172" rx="26" fill="url(#paint0_linear)"/>
<mask id="mask0" mask-type="alpha" maskUnits="userSpaceOnUse" x="24" y="8" width="322" height="207">
<rect x="24.8311" y="8.21857" width="320.425" height="206.172" rx="26" fill="url(#paint1_linear)"/>
</mask>
<g mask="url(#mask0)">
<path d="M238.179 188.032C238.179 216.888 214.786 240.281 185.93 240.281C157.073 240.281 133.681 216.888 133.681 188.032C133.681 172.818 140.183 159.123 150.561 149.574C159.866 141.011 172.288 135.783 185.93 135.783C214.786 135.783 238.179 159.176 238.179 188.032Z" fill="white" fill-opacity="0.12"/>
<path d="M238.179 188.032C238.179 216.888 214.786 240.281 185.93 240.281H336.724C307.868 240.281 284.475 216.888 284.475 188.032C284.475 184.346 284.857 180.749 285.583 177.279C283.122 177.634 280.606 177.818 278.047 177.818C252.686 177.818 231.545 159.749 226.796 135.783H192.713H185.93C214.786 135.783 238.179 159.176 238.179 188.032Z" fill="white" fill-opacity="0.12"/>
<path d="M226.796 135.783C226.141 132.48 225.798 129.065 225.798 125.569C225.798 120.978 226.39 116.526 227.502 112.284C223.136 120.117 210.066 135.783 192.713 135.783H226.796Z" fill="white" fill-opacity="0.12"/>
<path fill-rule="evenodd" clip-rule="evenodd" d="M336.724 240.281C365.581 240.281 388.974 216.888 388.974 188.032C388.974 159.176 365.581 135.783 336.724 135.783C334.165 135.783 331.649 135.967 329.189 136.322C324.735 157.611 307.324 174.138 285.583 177.279C284.857 180.749 284.475 184.346 284.475 188.032C284.475 216.888 307.868 240.281 336.724 240.281Z" fill="white" fill-opacity="0.12"/>
<path d="M329.189 136.322C324.735 157.611 307.324 174.138 285.583 177.279C290.037 155.991 307.447 139.463 329.189 136.322Z" fill="white" fill-opacity="0.12"/>
<path d="M330.296 125.569C330.296 96.7128 306.904 73.32 278.047 73.32C253.781 73.32 233.379 89.8619 227.502 112.284C226.39 116.526 225.798 120.978 225.798 125.569C225.798 129.065 226.141 132.48 226.796 135.783C231.545 159.749 252.686 177.818 278.047 177.818C280.606 177.818 283.122 177.634 285.583 177.279C290.037 155.991 307.447 139.463 329.189 136.322C329.915 132.852 330.296 129.255 330.296 125.569Z" fill="white" fill-opacity="0.12"/>
</g>
</g>
<defs>
<filter id="filter0_ddd" x="0.8311" y="0.218567" width="368.425" height="254.172" filterUnits="userSpaceOnUse" color-interpolation-filters="sRGB">
<feFlood flood-opacity="0" result="BackgroundImageFix"/>
<feColorMatrix in="SourceAlpha" type="matrix" values="0 0 0 0 0 0 0 0 0 0 0 0 0 0 0 0 0 0 127 0"/>
<feOffset/>
<feGaussianBlur stdDeviation="0.5"/>
<feColorMatrix type="matrix" values="0 0 0 0 0 0 0 0 0 0 0 0 0 0 0 0 0 0 0.04 0"/>
<feBlend mode="normal" in2="BackgroundImageFix" result="effect1_dropShadow"/>
<feColorMatrix in="SourceAlpha" type="matrix" values="0 0 0 0 0 0 0 0 0 0 0 0 0 0 0 0 0 0 127 0"/>
<feOffset dy="2"/>
<feGaussianBlur stdDeviation="3"/>
<feColorMatrix type="matrix" values="0 0 0 0 0 0 0 0 0 0 0 0 0 0 0 0 0 0 0.04 0"/>
<feBlend mode="normal" in2="effect1_dropShadow" result="effect2_dropShadow"/>
<feColorMatrix in="SourceAlpha" type="matrix" values="0 0 0 0 0 0 0 0 0 0 0 0 0 0 0 0 0 0 127 0"/>
<feOffset dy="16"/>
<feGaussianBlur stdDeviation="12"/>
<feColorMatrix type="matrix" values="0 0 0 0 0 0 0 0 0 0 0 0 0 0 0 0 0 0 0.06 0"/>
<feBlend mode="normal" in2="effect2_dropShadow" result="effect3_dropShadow"/>
<feBlend mode="normal" in="SourceGraphic" in2="effect3_dropShadow" result="shape"/>
</filter>
<linearGradient id="paint0_linear" x1="185.044" y1="8.21857" x2="185.044" y2="214.391" gradientUnits="userSpaceOnUse">
<stop stop-color="#197BBD"/>
<stop offset="1" stop-color="#3391D0"/>
</linearGradient>
<linearGradient id="paint1_linear" x1="185.044" y1="8.21857" x2="185.044" y2="214.391" gradientUnits="userSpaceOnUse">
<stop stop-color="#197BBD"/>
<stop offset="1" stop-color="#3391D0"/>
</linearGradient>
</defs>
</svg>
