<svg width="72" height="80" viewBox="0 0 72 80" fill="none" xmlns="http://www.w3.org/2000/svg">
<path d="M46.1739 23.4108L45.9544 24.4599L47.0152 24.3066C47.5365 24.2313 48.07 24.1923 48.6129 24.1923C54.7273 24.1923 59.684 29.149 59.684 35.2634C59.684 41.3777 54.7273 46.3344 48.6129 46.3344H14.4965C8.38216 46.3344 3.42548 41.3777 3.42548 35.2634C3.42548 32.0396 4.80235 29.1386 7.00237 27.1143C8.97469 25.2995 11.6055 24.1923 14.4965 24.1923H16.0313C18.2256 24.1923 20.1092 23.2027 21.5434 22.0291C22.977 20.8559 24.0219 19.4511 24.5571 18.491L24.6034 18.408L24.6275 18.316C25.8729 13.5647 30.1969 10.0604 35.3375 10.0604C41.4519 10.0604 46.4086 15.0171 46.4086 21.1315C46.4086 21.9135 46.3276 22.6758 46.1739 23.4108Z" stroke="#197BBD" stroke-width="1.5"/>
<path d="M40.4295 62.1394V52.6489" stroke="#197BBD" stroke-width="1.5" stroke-linecap="round" stroke-linejoin="round"/>
<path d="M35.6854 57.3942L40.4306 52.6489L45.1758 57.3942" stroke="#197BBD" stroke-width="1.5" stroke-linecap="round" stroke-linejoin="round"/>
<path d="M23.4833 44.515L28.2286 39.7698L32.9738 44.515" stroke="#197BBD" stroke-width="0.683017" stroke-linecap="round" stroke-linejoin="round"/>
<g clip-path="url(#clip0)">
<path d="M25.3369 60.1864L16.7087 68.8146C16.1793 69.344 16.1793 70.2025 16.7087 70.7319L22.4608 76.484C22.9903 77.0135 23.8487 77.0135 24.3782 76.484L33.0063 67.8559C33.5358 67.3264 33.5358 66.468 33.0063 65.9385L27.2542 60.1864C26.7248 59.657 25.8663 59.657 25.3369 60.1864Z" stroke="#197BBD" stroke-width="1.5" stroke-linecap="round" stroke-linejoin="round"/>
<path d="M18.6263 72.6489L29.1718 62.1034" stroke="#197BBD" stroke-width="1.5" stroke-linecap="round" stroke-linejoin="round"/>
</g>
<circle cx="17.5502" cy="17.6597" r="11.7215" transform="rotate(-30 17.5502 17.6597)" stroke="#197BBD" stroke-width="1.5"/>
<path d="M21.2506 17.1632C21.4688 17.541 21.5676 17.9494 21.5472 18.3883C21.535 18.8224 21.4034 19.2488 21.1524 19.6676C20.9095 20.0816 20.5641 20.4507 20.1162 20.775L20.92 22.1672C20.9816 22.274 20.9945 22.3816 20.9585 22.49C20.9355 22.6018 20.8705 22.6886 20.7638 22.7502C20.657 22.8119 20.5453 22.8271 20.4287 22.7958C20.3251 22.7681 20.2424 22.7008 20.1808 22.594L19.3841 21.2141C18.8477 21.48 18.3172 21.633 17.7927 21.673C17.2683 21.7129 16.7039 21.6555 16.0998 21.5005C15.9538 21.4753 15.8476 21.4052 15.7812 21.2902C15.7243 21.1916 15.7091 21.0799 15.7356 20.9551C15.7703 20.8256 15.8369 20.7323 15.9355 20.6754C16.0341 20.6185 16.1481 20.6074 16.2777 20.6421C17.213 20.9344 18.1086 20.8828 18.9644 20.4872L16.9728 17.0376C16.0632 17.2451 15.3011 17.2909 14.6865 17.1748C14.0719 17.0587 13.5678 16.6598 13.1742 15.9781C12.828 15.3785 12.7564 14.7518 12.9594 14.098C13.1576 13.436 13.5991 12.8635 14.284 12.3805L13.7363 11.4318C13.6746 11.3251 13.6577 11.2198 13.6855 11.1162C13.7167 10.9996 13.7857 10.9105 13.8925 10.8488C13.9993 10.7872 14.1069 10.7744 14.2152 10.8103C14.3271 10.8334 14.4139 10.8983 14.4755 11.005L15.0161 11.9414C15.4751 11.7311 15.941 11.5991 16.4136 11.5452C16.8863 11.4913 17.3159 11.5335 17.7023 11.6718C17.9061 11.7403 18.0365 11.8238 18.0934 11.9224C18.1456 12.0127 18.1543 12.1227 18.1196 12.2522C18.0801 12.3736 18.0111 12.4627 17.9126 12.5196C17.8304 12.567 17.744 12.5786 17.6533 12.5543C17.3316 12.4334 16.9738 12.3826 16.5798 12.402C16.1858 12.4214 15.8068 12.5143 15.4429 12.6806L17.3777 16.0317C17.977 15.8938 18.4996 15.822 18.9454 15.8165C19.3947 15.7981 19.8168 15.8938 20.2119 16.1038C20.6104 16.3008 20.9566 16.654 21.2506 17.1632ZM13.9239 15.5124C14.161 15.9231 14.4903 16.171 14.9118 16.2562C15.3415 16.3366 15.8697 16.3219 16.4962 16.2121L14.7037 13.1074C14.2441 13.4494 13.9423 13.8372 13.7983 14.2707C13.6496 14.6961 13.6915 15.11 13.9239 15.5124ZM19.6965 20.0481C20.1432 19.7026 20.4426 19.3108 20.5948 18.8725C20.7422 18.426 20.7021 18.0056 20.4744 17.6113C20.2196 17.189 19.8791 16.9311 19.4528 16.8377C19.0218 16.7361 18.4866 16.7385 17.8471 16.8449L19.6965 20.0481Z" fill="#197BBD"/>
<path d="M2.67548 35.2621C2.67548 41.7907 7.96794 47.0831 14.4965 47.0831H48.6129C55.1415 47.0831 60.434 41.7907 60.434 35.2621C60.434 28.7335 55.1415 23.441 48.6129 23.441C48.034 23.441 47.4647 23.4826 46.908 23.5631C47.0722 22.7779 47.1586 21.9641 47.1586 21.1302C47.1586 14.6016 41.8661 9.30914 35.3375 9.30914C29.8476 9.30914 25.2317 13.0516 23.902 18.1246C22.9142 19.8967 19.9571 23.441 16.0313 23.441H14.4965C11.41 23.441 8.59984 24.6239 6.49454 26.5611C4.14666 28.7215 2.67548 31.82 2.67548 35.2621Z" fill="white"/>
<path d="M46.1739 23.4095L45.9544 24.4586L47.0152 24.3054C47.5365 24.2301 48.07 24.191 48.6129 24.191C54.7273 24.191 59.684 29.1477 59.684 35.2621C59.684 41.3764 54.7273 46.3331 48.6129 46.3331H14.4965C8.38216 46.3331 3.42548 41.3764 3.42548 35.2621C3.42548 32.0384 4.80235 29.1373 7.00237 27.113C8.97469 25.2982 11.6055 24.191 14.4965 24.191H16.0313C18.2256 24.191 20.1092 23.2014 21.5434 22.0278C22.977 20.8546 24.0219 19.4498 24.5571 18.4897L24.6034 18.4067L24.6275 18.3147C25.8729 13.5635 30.1969 10.0591 35.3375 10.0591C41.4519 10.0591 46.4086 15.0158 46.4086 21.1302C46.4086 21.9122 46.3276 22.6745 46.1739 23.4095Z" stroke="#197BBD" stroke-width="1.5"/>
<path d="M68.7413 14.276C68.5902 15.9114 67.9764 17.4699 66.9719 18.7692C65.9673 20.0685 64.6135 21.0548 63.0688 21.6127C61.5242 22.1707 59.8526 22.2772 58.2496 21.9197C56.6466 21.5623 55.1786 20.7558 54.0173 19.5945C52.856 18.4331 52.0494 16.9651 51.692 15.3621C51.3346 13.7592 51.4411 12.0876 51.999 10.5429C52.5569 8.99824 53.5433 7.64442 54.8425 6.63986C56.1418 5.6353 57.7003 5.02155 59.3357 4.87042C58.3782 6.16575 57.9175 7.76171 58.0373 9.36803C58.1571 10.9743 58.8494 12.4843 59.9884 13.6233C61.1274 14.7623 62.6374 15.4547 64.2437 15.5744C65.85 15.6942 67.446 15.2335 68.7413 14.276V14.276Z" stroke="#197BBD" stroke-width="1.5" stroke-linecap="round" stroke-linejoin="round"/>
<rect x="20.0939" y="38.423" width="16.2694" height="13.4883" fill="white"/>
<path d="M28.2286 49.259V39.7685" stroke="#197BBD" stroke-width="1.5" stroke-linecap="round" stroke-linejoin="round"/>
<path d="M28.2286 47.9134V38.423" stroke="#197BBD" stroke-width="1.5" stroke-linecap="round" stroke-linejoin="round"/>
<path d="M23.4831 43.1682L28.2284 38.423L32.9736 43.1682" stroke="#197BBD" stroke-width="1.5" stroke-linecap="round" stroke-linejoin="round"/>
<defs>
<clipPath id="clip0">
<rect width="16.2694" height="16.2694" fill="white" transform="translate(13.3541 68.335) rotate(-45)"/>
</clipPath>
</defs>
</svg>

