<svg width="370" height="255" fill="none" xmlns="http://www.w3.org/2000/svg"><g filter="url(#filter0_ddd)"><rect x="24.8" y="8.2" width="320.4" height="206.2" rx="26" fill="url(#paint0_linear)"/><mask id="a" maskUnits="userSpaceOnUse" x="24" y="8" width="322" height="207"><rect x="24.8" y="8.2" width="320.4" height="206.2" rx="26" fill="url(#paint1_linear)"/></mask><g mask="url(#a)" fill="#fff" fill-opacity=".1"><path d="M238 188a52 52 0 11-104 0 52 52 0 01104 0z"/><path d="M238 188c0 29-23 52-52 52h151a52 52 0 01-51-63l-8 1c-25 0-46-18-51-42h-41c29 0 52 23 52 52zM227 136a52 52 0 011-24c-5 8-18 24-35 24h34z"/><path fill-rule="evenodd" clip-rule="evenodd" d="M337 240a52 52 0 10-8-104c-4 22-22 38-43 41a52 52 0 0051 63z"/><path d="M329 136c-4 22-22 38-43 41 4-21 21-38 43-41z"/><path d="M330 126a52 52 0 10-44 51c4-21 21-38 43-41l1-10z"/></g></g><defs><linearGradient id="paint0_linear" x1="185" y1="8.2" x2="185" y2="214.4" gradientUnits="userSpaceOnUse"><stop stop-color="#197BBD"/><stop offset="1" stop-color="#3391D0"/></linearGradient><linearGradient id="paint1_linear" x1="185" y1="8.2" x2="185" y2="214.4" gradientUnits="userSpaceOnUse"><stop stop-color="#197BBD"/><stop offset="1" stop-color="#3391D0"/></linearGradient><filter id="filter0_ddd" x=".8" y=".2" width="368.4" height="254.2" filterUnits="userSpaceOnUse" color-interpolation-filters="sRGB"><feFlood flood-opacity="0" result="BackgroundImageFix"/><feColorMatrix in="SourceAlpha" values="0 0 0 0 0 0 0 0 0 0 0 0 0 0 0 0 0 0 127 0"/><feOffset/><feGaussianBlur stdDeviation=".5"/><feColorMatrix values="0 0 0 0 0 0 0 0 0 0 0 0 0 0 0 0 0 0 0.04 0"/><feBlend in2="BackgroundImageFix" result="effect1_dropShadow"/><feColorMatrix in="SourceAlpha" values="0 0 0 0 0 0 0 0 0 0 0 0 0 0 0 0 0 0 127 0"/><feOffset dy="2"/><feGaussianBlur stdDeviation="3"/><feColorMatrix values="0 0 0 0 0 0 0 0 0 0 0 0 0 0 0 0 0 0 0.04 0"/><feBlend in2="effect1_dropShadow" result="effect2_dropShadow"/><feColorMatrix in="SourceAlpha" values="0 0 0 0 0 0 0 0 0 0 0 0 0 0 0 0 0 0 127 0"/><feOffset dy="16"/><feGaussianBlur stdDeviation="12"/><feColorMatrix values="0 0 0 0 0 0 0 0 0 0 0 0 0 0 0 0 0 0 0.06 0"/><feBlend in2="effect2_dropShadow" result="effect3_dropShadow"/><feBlend in="SourceGraphic" in2="effect3_dropShadow" result="shape"/></filter></defs></svg>