<svg width="36" height="36" viewBox="0 0 36 36" fill="none" xmlns="http://www.w3.org/2000/svg">
<path d="M28.5126 22.8952L23.5935 17.9677V14.3143C23.5942 14.2032 23.5729 14.0932 23.5309 13.9904C23.4889 13.8876 23.427 13.7941 23.3488 13.7152L14.9113 5.27772C14.8329 5.19863 14.7396 5.13586 14.6368 5.09303C14.5339 5.05019 14.4236 5.02814 14.3123 5.02814C14.2009 5.02814 14.0906 5.05019 13.9878 5.09303C13.885 5.13586 13.7916 5.19863 13.7132 5.27772L6.11945 12.8715C6.04037 12.9499 5.9776 13.0432 5.93476 13.146C5.89193 13.2489 5.86987 13.3591 5.86987 13.4705C5.86987 13.5819 5.89193 13.6922 5.93476 13.795C5.9776 13.8978 6.04037 13.9912 6.11945 14.0696L14.557 22.5071C14.6358 22.5853 14.7293 22.6472 14.8321 22.6891C14.9349 22.7311 15.045 22.7524 15.156 22.7518H18.8179L23.737 27.6793C24.3702 28.3126 25.2292 28.6683 26.1248 28.6683C27.0204 28.6683 27.8793 28.3126 28.5126 27.6793C29.1459 27.046 29.5016 26.1871 29.5016 25.2915C29.5016 24.3959 29.1459 23.5369 28.5126 22.9037V22.8952ZM9.24977 12.129L11.182 14.0696L12.3801 12.8715L10.4395 10.9393L11.781 9.59772L15.4007 13.2258L16.5988 12.0277L12.9707 8.40803L14.3123 7.06647L19.8726 12.6268L13.4685 19.0308L7.9082 13.4705L9.24977 12.129ZM27.3145 26.4727C26.9983 26.787 26.5706 26.9634 26.1248 26.9634C25.6789 26.9634 25.2512 26.787 24.9351 26.4727L19.7629 21.309C19.5831 21.1853 19.3788 21.1019 19.1638 21.0643H15.502L14.6582 20.2205L21.0623 13.8165L21.906 14.6602V18.3221C21.9069 18.5434 21.9948 18.7556 22.1507 18.9127L27.3145 24.0933C27.6287 24.4095 27.8052 24.8372 27.8052 25.283C27.8052 25.7288 27.6287 26.1565 27.3145 26.4727Z" fill="url(#paint0_linear)"/>
<path d="M27.3145 26.4727C26.9983 26.787 26.5706 26.9634 26.1248 26.9634C25.6789 26.9634 25.2512 26.787 24.9351 26.4727L19.7629 21.309C19.5831 21.1853 19.3788 21.1019 19.1638 21.0643H15.502L14.6582 20.2205L21.0623 13.8165L21.906 14.6602V18.3221C21.9069 18.5434 21.9948 18.7556 22.1507 18.9127L27.3145 24.0933C27.6287 24.4095 27.8052 24.8372 27.8052 25.283C27.8052 25.7288 27.6287 26.1565 27.3145 26.4727Z" fill="url(#paint1_linear)"/>
<defs>
<linearGradient id="paint0_linear" x1="17.6858" y1="5.02814" x2="17.6858" y2="28.6683" gradientUnits="userSpaceOnUse">
<stop stop-color="#FFA764"/>
<stop offset="1" stop-color="#F17F29"/>
</linearGradient>
<linearGradient id="paint1_linear" x1="17.6858" y1="5.02814" x2="17.6858" y2="28.6683" gradientUnits="userSpaceOnUse">
<stop stop-color="#FFA764"/>
<stop offset="1" stop-color="#F17F29"/>
</linearGradient>
</defs>
</svg>
