<svg width="36" height="36" viewBox="0 0 36 36" fill="none" xmlns="http://www.w3.org/2000/svg">
<path d="M18.3056 4.67834C17.6056 4.67834 17.3723 5.14501 16.9056 5.61168L3.37225 27.7783C3.13892 28.0117 3.13892 28.4783 3.13892 28.7117C3.13892 29.8783 4.07225 30.345 4.77225 30.345H31.8389C32.7723 30.345 33.4723 29.8783 33.4723 28.7117C33.4723 28.245 33.4722 28.245 33.2389 27.7783L19.9389 5.61168C19.4722 5.14501 19.0056 4.67834 18.3056 4.67834ZM18.3056 8.17834L26.0056 21.0117H24.1389L20.6389 17.5117L18.3056 21.0117L15.9722 17.5117L12.4722 21.0117H10.3722L18.3056 8.17834Z" fill="url(#paint0_linear)"/>
<defs>
<linearGradient id="paint0_linear" x1="18.3056" y1="4.67834" x2="18.3056" y2="30.345" gradientUnits="userSpaceOnUse">
<stop stop-color="#7CB4F9"/>
<stop offset="1" stop-color="#6DA2E4"/>
</linearGradient>
</defs>
</svg>
