 <svg className='goal_svg' width="36" height="36" viewBox="0 0 36 36" fill="none" xmlns="http://www.w3.org/2000/svg">
                <path d="M32.352 16.8425C31.0182 10.8121 29.0107 7.59344 26.0329 6.71425C25.407 6.53064 24.7577 6.43891 24.1054 6.44194C23.2432 6.44194 22.4923 6.65199 21.698 6.87461C20.7408 7.14315 19.6535 7.44816 18.068 7.44816C16.4826 7.44816 15.3946 7.14378 14.4356 6.87524C13.6406 6.65199 12.8904 6.44194 12.0307 6.44194C11.3561 6.4396 10.6846 6.53103 10.0352 6.71362C7.07313 7.58903 5.06696 10.8064 3.71359 16.8388C2.25834 23.3302 2.97464 27.4287 5.72227 28.3795C6.0989 28.5123 6.49518 28.5808 6.89452 28.582C8.77679 28.582 10.2861 27.0142 11.3175 25.7307C12.4828 24.2779 13.8469 23.5409 18.068 23.5409C21.8382 23.5409 23.3985 24.0521 24.7462 25.7307C25.5933 26.7859 26.3939 27.5243 27.1926 27.989C28.2548 28.6066 29.3164 28.7437 30.3471 28.3896C31.9709 27.8356 32.9017 26.3709 33.1142 24.0352C33.2759 22.2441 33.0268 19.8914 32.352 16.8425ZM15.0493 16.5042H13.0369V18.5166C13.0369 18.7835 12.9309 19.0394 12.7422 19.2282C12.5535 19.4169 12.2975 19.5229 12.0307 19.5229C11.7638 19.5229 11.5079 19.4169 11.3192 19.2282C11.1305 19.0394 11.0244 18.7835 11.0244 18.5166V16.5042H9.012C8.74513 16.5042 8.48919 16.3982 8.30049 16.2095C8.11178 16.0208 8.00577 15.7648 8.00577 15.498C8.00577 15.2311 8.11178 14.9752 8.30049 14.7865C8.48919 14.5978 8.74513 14.4917 9.012 14.4917H11.0244V12.4793C11.0244 12.2124 11.1305 11.9565 11.3192 11.7678C11.5079 11.5791 11.7638 11.4731 12.0307 11.4731C12.2975 11.4731 12.5535 11.5791 12.7422 11.7678C12.9309 11.9565 13.0369 12.2124 13.0369 12.4793V14.4917H15.0493C15.3162 14.4917 15.5722 14.5978 15.7609 14.7865C15.9496 14.9752 16.0556 15.2311 16.0556 15.498C16.0556 15.7648 15.9496 16.0208 15.7609 16.2095C15.5722 16.3982 15.3162 16.5042 15.0493 16.5042ZM20.332 16.7557C20.0833 16.7557 19.8401 16.682 19.6332 16.5438C19.4264 16.4056 19.2652 16.2091 19.17 15.9793C19.0748 15.7495 19.0499 15.4966 19.0984 15.2526C19.147 15.0086 19.2667 14.7845 19.4426 14.6086C19.6186 14.4327 19.8427 14.3129 20.0867 14.2644C20.3306 14.2158 20.5835 14.2407 20.8134 14.3359C21.0432 14.4311 21.2396 14.5923 21.3778 14.7992C21.5161 15.006 21.5898 15.2492 21.5898 15.498C21.5898 15.8316 21.4573 16.1515 21.2214 16.3874C20.9855 16.6232 20.6656 16.7557 20.332 16.7557ZM23.0992 19.5229C22.8503 19.5229 22.607 19.449 22.4 19.3107C22.1931 19.1723 22.0319 18.9757 21.9368 18.7457C21.8417 18.5157 21.817 18.2626 21.8658 18.0185C21.9146 17.7745 22.0347 17.5504 22.2109 17.3746C22.3871 17.1988 22.6115 17.0793 22.8557 17.0311C23.0999 16.9829 23.3529 17.0083 23.5827 17.104C23.8124 17.1996 24.0087 17.3613 24.1465 17.5686C24.2843 17.7758 24.3576 18.0193 24.3569 18.2682C24.3561 18.6013 24.2232 18.9204 23.9874 19.1556C23.7516 19.3908 23.4322 19.5229 23.0992 19.5229ZM23.0992 13.9886C22.8504 13.9886 22.6072 13.9149 22.4004 13.7767C22.1935 13.6384 22.0323 13.442 21.9371 13.2122C21.8419 12.9823 21.817 12.7295 21.8655 12.4855C21.9141 12.2415 22.0339 12.0174 22.2098 11.8415C22.3857 11.6656 22.6098 11.5458 22.8538 11.4972C23.0978 11.4487 23.3507 11.4736 23.5805 11.5688C23.8103 11.664 24.0068 11.8252 24.145 12.0321C24.2832 12.2389 24.3569 12.4821 24.3569 12.7308C24.3569 13.0644 24.2244 13.3844 23.9885 13.6202C23.7527 13.8561 23.4327 13.9886 23.0992 13.9886ZM25.8663 16.7557C25.6175 16.7557 25.3743 16.682 25.1675 16.5438C24.9606 16.4056 24.7994 16.2091 24.7042 15.9793C24.609 15.7495 24.5841 15.4966 24.6327 15.2526C24.6812 15.0086 24.801 14.7845 24.9769 14.6086C25.1528 14.4327 25.3769 14.3129 25.6209 14.2644C25.8649 14.2158 26.1178 14.2407 26.3476 14.3359C26.5774 14.4311 26.7739 14.5923 26.9121 14.7992C27.0503 15.006 27.1241 15.2492 27.1241 15.498C27.1241 15.8316 26.9915 16.1515 26.7557 16.3874C26.5198 16.6232 26.1999 16.7557 25.8663 16.7557Z" fill="url(#paint0_linear)"/>
                <defs>
                <linearGradient id="paint0_linear" x1="18.0693" y1="6.44186" x2="18.0693" y2="28.582" gradientUnits="userSpaceOnUse">
                <stop stop-color="#22B04A"/>
                <stop offset="1" stop-color="#1E9540"/>
                </linearGradient>
                </defs>
            </svg>