<svg className='histoty_tableSvg' width="15" height="15" viewBox="0 0 13 13" fill="none" xmlns="http://www.w3.org/2000/svg">
    <path d="M5.1053 11.8412C5.38146 11.8412 5.60533 11.6174 5.60533 11.3412C5.60533 11.0651 5.38146 10.8412 5.1053 10.8412C4.82915 10.8412 4.60528 11.0651 4.60528 11.3412C4.60528 11.6174 4.82915 11.8412 5.1053 11.8412Z" stroke="#F8964C" stroke-width="0.996054" stroke-linecap="round" stroke-linejoin="round"/>
    <path d="M10.6052 11.8412C10.8814 11.8412 11.1052 11.6174 11.1052 11.3412C11.1052 11.0651 10.8814 10.8412 10.6052 10.8412C10.329 10.8412 10.1052 11.0651 10.1052 11.3412C10.1052 11.6174 10.329 11.8412 10.6052 11.8412Z" stroke="#F8964C" stroke-width="0.996054" stroke-linecap="round" stroke-linejoin="round"/>
    <path d="M1.10449 1.34033H3.1046L4.44467 8.03569C4.4904 8.2659 4.61564 8.4727 4.79847 8.61987C4.98129 8.76705 5.21006 8.84523 5.44473 8.84074H10.305C10.5397 8.84523 10.7684 8.76705 10.9513 8.61987C11.1341 8.4727 11.2593 8.2659 11.305 8.03569L12.1051 3.84047H3.60463" stroke="#F8964C" stroke-width="0.996054" stroke-linecap="round" stroke-linejoin="round"/>
</svg>