<svg width="15" height="15" viewBox="0 0 10 9" fill="none" xmlns="http://www.w3.org/2000/svg">
<path d="M8.59471 1.354H1.09424V7.85441H8.59471V1.354Z" stroke="black" stroke-width="1.00006" stroke-linecap="round" stroke-linejoin="round"/>
<path d="M1.8448 3.35416C2.5352 3.35416 3.09488 2.79448 3.09488 2.10408C3.09488 1.41368 2.5352 0.854004 1.8448 0.854004C1.15441 0.854004 0.594727 1.41368 0.594727 2.10408C0.594727 2.79448 1.15441 3.35416 1.8448 3.35416Z" stroke="black" stroke-width="1.00006" stroke-linecap="round" stroke-linejoin="round"/>
<path d="M2.34432 3.35416C3.03472 3.35416 3.59439 2.79448 3.59439 2.10408C3.59439 1.41368 3.03472 0.854004 2.34432 0.854004C1.65392 0.854004 1.09424 1.41368 1.09424 2.10408C1.09424 2.79448 1.65392 3.35416 2.34432 3.35416Z" stroke="black" stroke-width="1.00006" stroke-linecap="round" stroke-linejoin="round"/>
<path d="M0.594727 0.854492H2.59485L4.09495 2.35459V4.85474H0.594727V0.854492Z" stroke="black" stroke-width="1.00006" stroke-linecap="round" stroke-linejoin="round"/>

</svg>
